<?xml version="1.0" encoding="UTF-8"?>
<svg width="27px" height="27px" viewBox="0 0 27 27" version="1.1" xmlns="http://www.w3.org/2000/svg" xmlns:xlink="http://www.w3.org/1999/xlink">
    <!-- Generator: Sketch 46.1 (44463) - http://www.bohemiancoding.com/sketch -->
    <title>paper-plane</title>
    <desc>Created with Sketch.</desc>
    <defs></defs>
    <g id="Welcome" stroke="none" stroke-width="1" fill="none" fill-rule="evenodd">
        <g id="CriarCampanha_1" transform="translate(-109.000000, -331.000000)" stroke="#ED754D" stroke-width="0.5" fill="#ED754D" fill-rule="nonzero">
            <g id="paper-plane" transform="translate(110.000000, 332.000000)">
                <path d="M24.7859831,0.209040784 C24.5781107,0.00102714139 24.2583072,-0.0576433731 23.9918042,0.0596976559 L0.432942859,10.3910419 C0.182430079,10.5030492 0.0171982459,10.743065 0.00120806853,11.0150828 C-0.0147821089,11.2871007 0.129129488,11.5431174 0.36365209,11.6764595 L8.57727322,16.3380986 L13.4542773,24.6426432 C13.5821987,24.8613242 13.8220514,25 14.0725642,25 C14.0885544,25 14.0992145,25 14.1152047,25 C14.3870377,24.983999 14.6215603,24.8186548 14.7334915,24.5679717 L24.9405548,1.00375957 C25.0578161,0.731741731 24.9991854,0.417054426 24.7859831,0.209040784 Z M21.0389515,2.9238855 L8.98235771,14.9086715 L2.32511385,11.1324238 L21.0389515,2.9238855 Z M13.9766231,22.6905152 L10.0057291,15.9220713 L22.1316136,3.86794742 L13.9766231,22.6905152 Z" id="Shape"></path>
            </g>
        </g>
    </g>
</svg>