<?xml version="1.0" encoding="UTF-8"?>
<svg width="28px" height="30px" viewBox="0 0 28 30" version="1.1" xmlns="http://www.w3.org/2000/svg" xmlns:xlink="http://www.w3.org/1999/xlink">
    <!-- Generator: Sketch 46.1 (44463) - http://www.bohemiancoding.com/sketch -->
    <title>Page 1</title>
    <desc>Created with Sketch.</desc>
    <defs>
        <polygon id="path-1" points="12.5571735 12.5580188 12.5571735 0.117974061 0.074431127 0.117974061 0.074431127 12.5580188 12.5571735 12.5580188"></polygon>
    </defs>
    <g id="Welcome" stroke="none" stroke-width="1" fill="none" fill-rule="evenodd">
        <g id="CriarCampanha_1" transform="translate(-110.000000, -379.000000)">
            <g id="Menu" transform="translate(110.000000, 105.000000)">
                <g id="Page-1" transform="translate(0.000000, 274.000000)">
                    <path d="M2.02518536,23.1863464 L2.03501746,23.1665111 L2.04484957,23.1764288 L2.02518536,23.1863464 Z M1.84399372,23.3015804 L2.02518536,23.1724145 L2.02518536,23.1780817 L1.84399372,23.3015804 Z M13.0429948,23.1313269 L2.04274269,23.1313269 L3.12474237,19.366388 C3.59832207,17.710136 4.92003782,16.4180044 6.56925629,15.9950864 L6.76800526,15.9480955 C8.3177322,17.6749519 10.2010484,17.8215918 11.9963438,17.8215918 C13.7916393,17.8215918 15.6749555,17.6749519 17.2185959,15.9539988 L17.4058741,16.0009897 C18.1776943,16.2300408 18.8153765,16.5764511 19.3062794,17.0229827 L19.3123659,17.0286499 C19.5052625,17.1932361 19.76277,17.2754112 20.0198093,17.2579372 C20.2773168,17.240227 20.5228853,17.1228679 20.6984586,16.9230975 C20.8679453,16.7233272 20.9498795,16.4590919 20.9262357,16.2064273 C20.90306,15.9421921 20.7860111,15.7013342 20.598967,15.5369842 C19.8444701,14.8616376 18.9263388,14.3799219 17.8677489,14.0920731 L17.5580376,14.0158015 C16.8969456,13.8453119 16.1658584,14.0745991 15.7332458,14.5796922 C14.715623,15.7367545 13.4116987,15.8307363 11.931967,15.8307363 C10.5224646,15.8307363 9.17757314,15.7367545 8.15995033,14.5796922 C7.70954631,14.0627924 7.00186889,13.8394085 6.35880244,14.0098981 L6.04300461,14.0861698 C3.72122338,14.7088582 1.86740349,16.5296964 1.20069317,18.8435848 L0.855633127,20.0242605 L0.849780684,20.0242605 L0.0835788306,22.6259977 C-0.0976128084,23.2253087 0.019436054,23.847761 0.399376661,24.3353801 C0.779551366,24.8227631 1.37017993,25.1162791 1.96666093,25.1162791 L13.0371423,25.1162791 C13.5870379,25.1162791 14.0313554,24.6699836 14.0313554,24.123803 C14.0313554,23.5776224 13.5870379,23.1313269 13.0429948,23.1313269 L13.0429948,23.1313269 Z" id="Fill-1" fill="#ED754D"></path>
                    <g id="Group-5" transform="translate(15.348837, 17.441860)">
                        <mask id="mask-2" fill="white">
                            <use xlink:href="#path-1"></use>
                        </mask>
                        <g id="Clip-4"></g>
                        <path d="M11.1453971,6.48519231 L10.0837513,6.48519231 L9.96903757,7.05586315 C9.86639893,7.54224955 9.68527191,7.98685599 9.41986047,8.3834034 L9.08803578,8.85795617 L9.84224866,9.60878801 L9.62489624,9.82517442 L8.87092487,9.07410107 L8.388161,9.39264311 C7.98388551,9.66288462 7.53155098,9.84908318 7.05506619,9.93916369 L6.48173882,10.053153 L6.48173882,11.1225268 L6.16802683,11.1225268 L6.16802683,10.0652281 L5.59494097,9.95703488 C5.10613953,9.85512075 4.65984258,9.67495975 4.26160465,9.41051431 L3.77884079,9.09221377 L3.02486941,9.83700805 L2.80147943,9.61482558 L3.55569231,8.86399374 L3.23594275,8.3834034 C2.96449374,7.98081843 2.77757066,7.53041592 2.68700716,7.05586315 L2.57229338,6.48519231 L1.51040608,6.48519231 L1.51040608,6.1787254 L2.57229338,6.1787254 L2.68700716,5.60829606 C2.78940429,5.12166816 2.9702898,4.67706172 3.23594275,4.28075581 L3.55569231,3.80016547 L2.8077585,3.04933363 L3.03066547,2.82715116 L3.78487835,3.5777415 L4.26764222,3.25944097 C4.67167621,2.98919946 5.12425224,2.80300089 5.60097853,2.71292039 L6.1740644,2.59868962 L6.1740644,1.53559481 L6.48173882,1.53559481 L6.48173882,2.59868962 L7.05506619,2.71292039 C7.54362612,2.81507603 7.99016458,2.99523703 8.388161,3.25944097 L8.87092487,3.5777415 L9.62489624,2.82715116 L9.84828623,3.04933363 L9.09407335,3.80016547 L9.4138229,4.28075581 C9.68527191,4.68309928 9.87243649,5.13374329 9.963,5.60829606 L10.0774723,6.1787254 L11.1453971,6.1787254 L11.1453971,6.48519231 Z M11.3808623,4.76110465 L11.1997352,4.76110465 C11.1152093,4.50897585 11.0125707,4.25056798 10.8797442,4.00447674 L11.0065331,3.87817084 C11.2299231,3.65598837 11.3564705,3.35555903 11.3564705,3.04329606 C11.3564705,2.73103309 11.2299231,2.43664132 11.0065331,2.22025492 L10.4455224,1.66165921 C10.2223739,1.43947674 9.92653309,1.31920841 9.61282111,1.31920841 C9.29910912,1.31920841 9.00350984,1.43947674 8.78036136,1.66165921 L8.65381395,1.78772361 C8.41834884,1.66769678 8.17105009,1.56554114 7.89356351,1.47546064 L7.89356351,1.29529964 C7.89356351,0.646623435 7.36249911,0.117974061 6.71116637,0.117974061 L5.92048658,0.117974061 C5.26915385,0.117974061 4.73833095,0.646623435 4.73833095,1.29529964 L4.73833095,1.47546064 C4.48475313,1.55950358 4.22537925,1.66165921 3.977839,1.79376118 L3.85129159,1.66769678 C3.62814311,1.44527281 3.33230233,1.32524597 3.01883184,1.32524597 C2.70511986,1.32524597 2.40927907,1.44527281 2.18613059,1.66769678 L1.62511986,2.22629249 C1.16674776,2.68877013 1.17254383,3.4338059 1.62511986,3.88420841 L1.75190877,4.01027281 C1.63115742,4.24453041 1.52851878,4.49086315 1.43819678,4.76714222 L1.25706977,4.76714222 C0.605495528,4.76714222 0.074431127,5.29579159 0.074431127,5.9444678 L0.074431127,6.73152504 C0.074431127,7.38020125 0.605495528,7.90885063 1.25706977,7.90885063 L1.43819678,7.90885063 C1.52248122,8.16097943 1.62511986,8.4193873 1.75794633,8.66572004 L1.63115742,8.79178444 C1.40800894,9.00213327 1.28122004,9.30256261 1.28122004,9.61482558 C1.28122004,9.93312612 1.40172987,10.2335555 1.62511986,10.4557379 L2.18613059,11.0143336 C2.40927907,11.2365161 2.70511986,11.3567844 3.01883184,11.3567844 C3.33230233,11.3567844 3.62814311,11.2365161 3.85129159,11.0143336 L3.977839,10.8882692 C4.21330411,11.0082961 4.46060286,11.1104517 4.73833095,11.2005322 L4.73833095,11.3806932 C4.73833095,12.0296109 5.26915385,12.5580188 5.92048658,12.5580188 L6.71116637,12.5580188 C7.36249911,12.5580188 7.89356351,12.0296109 7.89356351,11.3806932 L7.89356351,11.2005322 C8.14689982,11.1164893 8.4062737,11.0143336 8.65381395,10.8822317 L8.78036136,11.0082961 C9.00350984,11.2304785 9.29910912,11.3507469 9.61282111,11.3507469 C9.92653309,11.3507469 10.2223739,11.2304785 10.4455224,11.0082961 L11.0065331,10.4497004 C11.2299231,10.2275179 11.3564705,9.92708855 11.3564705,9.61482558 C11.3564705,9.30256261 11.2299231,9.00817084 11.0065331,8.79178444 L10.8797442,8.66572004 C11.0004955,8.43146243 11.1031342,8.1851297 11.1934562,7.90885063 L11.3745832,7.90885063 C12.0261574,7.90885063 12.5572218,7.38020125 12.5572218,6.73152504 L12.5572218,5.93239267 C12.5630179,5.28371646 12.032195,4.76110465 11.3808623,4.76110465 L11.3808623,4.76110465 Z" id="Fill-3" fill="#ED754D" mask="url(#mask-2)"></path>
                    </g>
                    <path d="M23.707392,22.7453545 C23.3185321,22.7466781 22.9999632,23.0275053 23.0012184,23.3676746 C23.0039799,24.0316885 22.391695,24.5712826 21.6328031,24.5737093 C20.8741623,24.5761359 20.2573587,24.0405127 20.2543462,23.3764987 C20.2515848,22.7127053 20.8641207,22.1728906 21.6227615,22.1704639 C22.0116214,22.1691403 22.3304414,21.8883131 22.3289351,21.5481439 C22.3274289,21.2079746 22.0066006,20.9291328 21.6177407,20.9302358 C20.0813801,20.9353097 18.8314553,22.0367787 18.8372292,23.3811313 C18.8427521,24.7254839 20.1017143,25.8187907 21.6380749,25.8139374 C23.1744355,25.8088635 24.4241093,24.7073945 24.4185864,23.3630419 C24.4170802,23.0228726 24.0962519,22.7440308 23.707392,22.7453545" id="Fill-6" fill="#ED754D"></path>
                    <path d="M9.50327388,8.54278889 L11.9090491,7.58419053 L14.3148243,8.54278889 L16.1904662,7.57364595 C16.0295246,8.95666373 15.578007,10.2864793 14.8924979,11.3373427 C14.0641357,12.601015 12.9751131,13.3281119 11.9090491,13.3281119 C10.871973,13.3281119 9.84649224,12.6724306 9.01233248,11.4804135 C8.27348538,10.4218813 7.77094877,9.01322103 7.60977528,7.56453927 L9.50327388,8.54278889 Z M7.99798308,5.90256937 L9.00723058,5.20734591 C9.03158053,5.19081009 9.06265571,5.18817395 9.0893247,5.20087537 L11.2669061,6.23951669 C11.2940389,6.25245777 11.3123593,6.27905887 11.3153741,6.30973402 C11.3183888,6.34040917 11.3054022,6.37036537 11.281516,6.38857874 L10.3585369,7.08811589 C10.3441589,7.09913977 10.326766,7.10489136 10.3089094,7.10489136 L8.88571273,7.10489136 C8.86066707,7.10489136 8.83701283,7.09338818 8.82124334,7.07373691 L7.98012645,6.0307819 C7.96482076,6.01160993 7.95786363,5.98692603 7.9615741,5.96248177 C7.96482076,5.93803751 7.97803931,5.91646905 7.99798308,5.90256937 L7.99798308,5.90256937 Z M12.5509602,6.23951669 L14.7287734,5.20087537 C14.7554424,5.1879343 14.7865176,5.19057044 14.8108676,5.20734591 L15.8198832,5.90256937 C15.8398269,5.91646905 15.8532774,5.93803751 15.856524,5.96248177 C15.8600026,5.98692603 15.8532774,6.01160993 15.8377398,6.0307819 L14.9968548,7.07373691 C14.9808534,7.09338818 14.9574311,7.10489136 14.9323854,7.10489136 L13.5091887,7.10489136 C13.4913321,7.10489136 13.4739393,7.09913977 13.4595612,7.08811589 L12.5365821,6.38857874 C12.512696,6.37036537 12.4994774,6.34040917 12.5027241,6.30973402 C12.5055069,6.27905887 12.5238274,6.25245777 12.5509602,6.23951669 L12.5509602,6.23951669 Z M3.61383232,3.7598624 L4.98114006,6.5280548 L3.67319982,6.07056373 L6.09706354,9.90256066 C6.40433674,10.913163 6.84820157,11.8506722 7.41914995,12.666679 C8.62412468,14.3952715 10.2231048,15.3488372 11.9090491,15.3488372 C14.4743744,15.3488372 16.7980555,12.9367641 17.7548926,9.69550341 L20.0474985,6.07056373 L18.7395583,6.5280548 L20.1070979,3.7598624 L18.9037465,4.18068708 L20.2325581,0.5828278 L17.8583219,4.33621966 C16.9916956,1.81438704 14.6510855,0 11.9090491,0 C9.90446831,0 7.99264928,1.00125598 6.79347215,2.6821582 L6.78767454,2.68814944 C6.26635368,3.48091028 6.05787172,4.05319349 6.04024699,4.11286624 C6.00012755,4.22166716 5.96302286,4.33070772 5.92800531,4.44022758 L3.48837209,0.5828278 L4.81695182,4.18068708 L3.61383232,3.7598624 Z" id="Fill-8" fill="#ED754D"></path>
                </g>
            </g>
        </g>
    </g>
</svg>