<?xml version="1.0" encoding="UTF-8"?>
<svg width="24px" height="18px" viewBox="0 0 24 18" version="1.1" xmlns="http://www.w3.org/2000/svg" xmlns:xlink="http://www.w3.org/1999/xlink">
    <!-- Generator: Sketch 46.1 (44463) - http://www.bohemiancoding.com/sketch -->
    <title>Logout</title>
    <desc>Created with Sketch.</desc>
    <defs></defs>
    <g id="Welcome" stroke="none" stroke-width="1" fill="none" fill-rule="evenodd">
        <g id="CriarCampanha_1" transform="translate(-112.000000, -426.000000)" fill-rule="nonzero" fill="#ED754D">
            <g id="Menu" transform="translate(110.000000, 105.000000)">
                <g id="Logout" transform="translate(2.000000, 321.000000)">
                    <g id="002-logout" transform="translate(12.000000, 9.000000) scale(-1, 1) translate(-12.000000, -9.000000) ">
                        <g id="Layer_1">
                            <g id="XMLID_2_">
                                <path d="M3.72458182,10.097561 L16.3634909,10.097561 C16.9659636,10.097561 17.4544,9.60614634 17.4544,9 C17.4544,8.39385366 16.9659636,7.90243902 16.3634909,7.90243902 L3.72458182,7.90243902 L5.13505455,6.48343902 C5.56109091,6.05487805 5.56109091,5.35990244 5.13505455,4.93126829 C4.70916364,4.50263415 4.0184,4.50263415 3.59229091,4.93126829 L0.319781818,8.22373171 C0.294472727,8.24912195 0.270618182,8.27568293 0.247927273,8.3034878 C0.2424,8.31029268 0.237672727,8.31760976 0.232290909,8.32456098 C0.215636364,8.34585366 0.199272727,8.36721951 0.184290909,8.3897561 C0.179927273,8.39634146 0.176363636,8.40329268 0.172072727,8.40995122 C0.157090909,8.4335122 0.1424,8.45729268 0.129163636,8.48209756 C0.126618182,8.487 0.124509091,8.49219512 0.121963636,8.49709756 C0.108218182,8.52395122 0.0949818182,8.55117073 0.0834181818,8.57926829 C0.0819636364,8.58270732 0.0809454545,8.58636585 0.0795636364,8.58987805 C0.0677090909,8.61943902 0.0567272727,8.64936585 0.0474181818,8.68017073 C0.0461818182,8.68404878 0.0455272727,8.68807317 0.0444363636,8.69202439 C0.0356363636,8.7222439 0.0275636364,8.7527561 0.0213818182,8.784 C0.0195636364,8.79329268 0.0187636364,8.80287805 0.0170909091,8.8122439 C0.0125818182,8.83814634 0.00807272727,8.86404878 0.00552727273,8.89046341 C0.00181818182,8.92668293 0,8.96326829 0,9 C0,9.03673171 0.00181818182,9.07331707 0.00552727273,9.10960976 C0.00807272727,9.13639024 0.0127272727,9.1625122 0.0171636364,9.18863415 C0.0187636364,9.19770732 0.0195636364,9.207 0.0213818182,9.216 C0.0276363636,9.24753659 0.0356363636,9.27834146 0.0445090909,9.30885366 C0.0456,9.31243902 0.0462545455,9.3162439 0.0473454545,9.31982927 C0.0567272727,9.35078049 0.0677090909,9.381 0.0797090909,9.41085366 C0.0810181818,9.41407317 0.0819636364,9.4175122 0.0833454545,9.42073171 C0.0949818182,9.44904878 0.108290909,9.47641463 0.122181818,9.50341463 C0.124581818,9.50817073 0.126618182,9.51314634 0.129090909,9.51790244 C0.142472727,9.54285366 0.157236364,9.56685366 0.172436364,9.59063415 C0.176509091,9.59707317 0.18,9.60387805 0.184218182,9.61017073 C0.199272727,9.63278049 0.215781818,9.65429268 0.232363636,9.67565854 C0.237672727,9.68253659 0.2424,9.68978049 0.247854545,9.6965122 C0.270618182,9.7242439 0.294472727,9.75087805 0.319709091,9.77626829 L3.59221818,13.0687317 C3.80523636,13.283122 4.08443636,13.3902439 4.36363636,13.3902439 C4.64283636,13.3902439 4.92203636,13.283122 5.13498182,13.0687317 C5.56101818,12.6400976 5.56101818,11.9451951 5.13498182,11.516561 L3.72458182,10.097561 Z" id="XMLID_4_"></path>
                                <path d="M15.0762909,0.0218780488 C12.0985455,0.0218780488 9.32807273,1.50812195 7.66516364,3.99746341 C7.32916364,4.5005122 7.46210909,5.18246341 7.96210909,5.52058537 C8.46218182,5.85863415 9.13992727,5.72502439 9.47607273,5.22182927 C10.7328727,3.3402439 12.8264,2.21692683 15.0762909,2.21692683 C18.7937455,2.217 21.8181818,5.25980488 21.8181818,9 C21.8181818,12.7401951 18.7937455,15.783 15.0762909,15.783 C12.8330182,15.783 10.7429091,14.6647317 9.48516364,12.7917073 C9.14778182,12.2893902 8.46981818,12.1573902 7.97047273,12.4966829 C7.47127273,12.8360488 7.33992727,13.5182927 7.67723636,14.0205366 C9.34130909,16.4986829 12.1072727,17.978122 15.0762909,17.978122 C19.9968,17.978122 24,13.9505854 24,9 C24,4.04941463 19.9968,0.0218780488 15.0762909,0.0218780488 Z" id="XMLID_5_"></path>
                            </g>
                        </g>
                    </g>
                </g>
            </g>
        </g>
    </g>
</svg>