<?xml version="1.0" encoding="UTF-8"?>
<svg width="122px" height="153px" viewBox="0 0 122 153" version="1.1" xmlns="http://www.w3.org/2000/svg" xmlns:xlink="http://www.w3.org/1999/xlink">
    <!-- Generator: Sketch 46.1 (44463) - http://www.bohemiancoding.com/sketch -->
    <title>Page 1</title>
    <desc>Created with Sketch.</desc>
    <defs>
        <polygon id="path-1" points="0.000415909091 0.827659091 121.086634 0.827659091 121.086634 120.750332 0.000415909091 120.750332 0.000415909091 0.827659091"></polygon>
        <polygon id="path-3" points="121.617978 0.163740778 121.617978 119 61.2644657 119 0.910953864 119 0.910953864 0.163740778"></polygon>
    </defs>
    <g id="Welcome" stroke="none" stroke-width="1" fill="none" fill-rule="evenodd">
        <g id="RecuperarPP" transform="translate(-659.000000, -182.000000)">
            <g id="Page-1" transform="translate(659.000000, 182.000000)">
                <g id="Group-3">
                    <mask id="mask-2" fill="white">
                        <use xlink:href="#path-1"></use>
                    </mask>
                    <g id="Clip-2"></g>
                    <path d="M18.9894386,120.750332 C18.4515295,120.750332 17.9150068,120.543764 17.5074159,120.129241 C6.21687045,108.648764 0.000415909091,93.4583773 0.000415909091,77.35715 C0.000415909091,43.7211955 27.3644614,16.35715 61.0004159,16.35715 C70.9392568,16.35715 80.7810523,18.7957636 89.5095977,23.4165136 L117.723484,1.27212727 C118.558075,0.616377273 119.754507,0.692627273 120.496211,1.45651364 C121.237916,2.21624091 121.286439,3.41405909 120.609893,4.2334 L84.1443705,48.3308545 L100.737757,48.3308545 C101.583439,48.3308545 102.344552,48.8438091 102.663416,49.6257182 C102.98228,50.4104 102.793734,51.3087636 102.18928,51.8993545 L70.2252795,83.0426273 L87.9471659,83.0426273 C88.8344386,83.0426273 89.6232795,83.6041045 89.9130295,84.4428545 C90.2027795,85.2802182 89.9296659,86.2104682 89.2309386,86.7566955 L64.7921205,105.939809 C63.8909841,106.648241 62.5822568,106.492968 61.873825,105.587673 C61.1640068,104.68515 61.3206659,103.379195 62.2259614,102.669377 L81.9303477,87.2017182 L65.1109841,87.2017182 C64.2639159,87.2017182 63.5028023,86.6887636 63.1839386,85.9054682 C62.865075,85.1221727 63.0536205,84.2224227 63.6594614,83.6332182 L95.622075,52.4899455 L79.7274159,52.4899455 C78.9205523,52.4899455 78.1885523,52.0241273 77.8447341,51.2949 C77.5023023,50.5670591 77.6104386,49.7061273 78.1233932,49.0850364 L105.088166,16.4763773 L90.9999386,27.5340136 C90.3441886,28.0497409 89.4402795,28.1218318 88.7096659,27.7184 L88.0774841,27.36765 C79.8327795,22.8883091 70.4637341,20.5162409 61.0004159,20.5162409 C29.6575068,20.5162409 4.15950682,46.0156273 4.15950682,77.35715 C4.15950682,92.3617636 9.95173409,106.51515 20.4714614,117.212332 C21.2769386,118.031673 21.2672341,119.347332 20.4478932,120.152809 C20.043075,120.550695 19.5162568,120.750332 18.9894386,120.750332" id="Fill-1" fill="#1E2341" mask="url(#mask-2)"></path>
                </g>
                <g id="Group-6" transform="translate(0.000000, 34.000000)">
                    <mask id="mask-4" fill="white">
                        <use xlink:href="#path-3"></use>
                    </mask>
                    <g id="Clip-5"></g>
                    <path d="M2.98544494,119 C2.4354,119 1.88950112,118.783448 1.48318652,118.358621 C0.746568539,117.587586 0.717546067,116.383448 1.41684944,115.577931 L39.4266135,71.7393103 L22.1071079,71.7393103 C21.2682202,71.7393103 20.513636,71.2358621 20.1916247,70.4634483 C19.8709955,69.6896552 20.0492764,68.7986207 20.640782,68.2082759 L51.7072652,37.2041379 L33.9455124,37.2041379 C33.0624,37.2041379 32.2746472,36.6455172 31.9858045,35.8110345 C31.6969618,34.977931 31.9706022,34.0524138 32.6671416,33.5089655 L57.0280517,14.422069 C57.9277483,13.7158621 59.2309955,13.8717241 59.938591,14.7724138 C60.6461865,15.6703448 60.488636,16.9696552 59.5875573,17.6758621 L39.9434899,33.0662069 L56.7115685,33.0662069 C57.5490742,33.0662069 58.3050404,33.5696552 58.6270517,34.3434483 C58.9476809,35.1172414 58.7694,36.0068966 58.1778944,36.5986207 L27.1114112,67.6013793 L43.9624112,67.6013793 C44.7736584,67.6013793 45.5116584,68.0744828 45.8488719,68.8096552 C46.1860854,69.5462069 46.0617034,70.4124138 45.5296247,71.0248276 L18.6423775,102.034483 L30.8594562,92.4634483 C30.9796921,92.3641379 31.1123663,92.2786207 31.2533326,92.2068966 C31.9084112,91.88 32.6629955,91.9296552 33.2545011,92.2868966 C41.6309393,96.9489655 51.1572202,99.4124138 60.8092652,99.4124138 C92.0526472,99.4124138 117.472187,74.0427586 117.472187,42.8606897 C117.472187,28.1710345 111.854265,14.2537931 101.656321,3.6662069 C100.86304,2.84275862 100.889299,1.5337931 101.714366,0.742068966 C102.538052,-0.0510344828 103.850973,-0.0248275862 104.645636,0.79862069 C115.591254,12.16 121.618254,27.0965517 121.618254,42.8606897 C121.618254,76.3255172 94.3398944,103.550345 60.8092652,103.550345 C50.8932539,103.550345 41.0974787,101.125517 32.387973,96.5255172 L4.26381573,118.558621 C3.88514157,118.855172 3.43460225,119 2.98544494,119" id="Fill-4" fill="#1E2341" mask="url(#mask-4)"></path>
                </g>
            </g>
        </g>
    </g>
</svg>