<?xml version="1.0" encoding="UTF-8"?>
<svg width="102px" height="128px" viewBox="0 0 102 128" version="1.1" xmlns="http://www.w3.org/2000/svg" xmlns:xlink="http://www.w3.org/1999/xlink">
    <!-- Generator: Sketch 46.1 (44463) - http://www.bohemiancoding.com/sketch -->
    <title>Page 1 Copy</title>
    <desc>Created with Sketch.</desc>
    <defs>
        <polygon id="path-1" points="0.000347727273 0.690855935 101.236367 0.690855935 101.236367 100.791599 0.000347727273 100.791599 0.000347727273 0.690855935"></polygon>
        <polygon id="path-3" points="101.680604 0.137597293 101.680604 100 51.2211107 100 0.761617165 100 0.761617165 0.137597293"></polygon>
    </defs>
    <g id="Welcome" stroke="none" stroke-width="1" fill="none" fill-rule="evenodd">
        <g id="CriarCampanha_1" transform="translate(-130.000000, -105.000000)">
            <g id="Menu" transform="translate(110.000000, 105.000000)">
                <g id="Page-1-Copy" transform="translate(20.000000, 0.000000)">
                    <g id="Group-3">
                        <mask id="mask-2" fill="white">
                            <use xlink:href="#path-1"></use>
                        </mask>
                        <g id="Clip-2"></g>
                        <path d="M15.8764159,100.791599 C15.4266886,100.791599 14.9781205,100.619175 14.6373477,100.273168 C5.19771136,90.6902903 0.000347727273,78.0107116 0.000347727273,64.5708442 C0.000347727273,36.4945516 22.8784841,13.6534888 51.0003477,13.6534888 C59.3098705,13.6534888 67.5382568,15.6890258 74.8358932,19.5460155 L98.4245523,1.0618583 C99.122325,0.514496732 100.12262,0.578143426 100.742734,1.21576758 C101.362848,1.8499201 101.403416,2.8497518 100.83778,3.53366446 L70.3502114,40.3422835 L84.2233705,40.3422835 C84.9304159,40.3422835 85.5667568,40.7704522 85.8333477,41.4231201 C86.0999386,42.0781025 85.9423023,42.8279763 85.4369386,43.3209488 L58.7129386,69.3165732 L73.5295977,69.3165732 C74.2714159,69.3165732 74.9309386,69.7852443 75.1731886,70.4853579 C75.4154386,71.1843144 75.1870977,71.960804 74.6029159,72.4167458 L54.1704614,88.4290968 C53.4170523,89.0204325 52.3228705,88.8908247 51.730575,88.1351648 C51.1371205,87.3818194 51.2680977,86.2917251 52.0249841,85.6992323 L68.4991432,72.788211 L54.4370523,72.788211 C53.7288477,72.788211 53.0925068,72.3600424 52.8259159,71.7062172 C52.559325,71.0523921 52.7169614,70.3013611 53.2234841,69.8095458 L79.946325,43.8139214 L66.6573477,43.8139214 C65.9827568,43.8139214 65.3707568,43.425098 65.0833023,42.8164041 C64.7970068,42.2088675 64.8874159,41.4902385 65.3162795,40.9718072 L87.8605977,13.7530091 L76.0819159,22.982937 C75.5336659,23.4134201 74.7779386,23.4735952 74.1670977,23.1368463 L73.6385523,22.8440715 C66.7454386,19.1051175 58.9123023,17.1251267 51.0003477,17.1251267 C24.7956205,17.1251267 3.47762045,38.4097385 3.47762045,64.5708442 C3.47762045,77.0953564 8.32030227,88.9093401 17.1154841,97.8383927 C17.7889159,98.5223053 17.7808023,99.6205001 17.0957795,100.292841 C16.757325,100.624961 16.3168705,100.791599 15.8764159,100.791599" id="Fill-1" fill="#ED754D" mask="url(#mask-2)"></path>
                    </g>
                    <g id="Group-6" transform="translate(0.000000, 28.000000)">
                        <mask id="mask-4" fill="white">
                            <use xlink:href="#path-3"></use>
                        </mask>
                        <g id="Clip-5"></g>
                        <path d="M2.49602774,100 C2.0361541,100 1.57974684,99.8180238 1.24004119,99.4610258 C0.624180254,98.8130977 0.599915565,97.801217 1.18457904,97.1243118 L32.9632342,60.2851347 L18.4829918,60.2851347 C17.7816267,60.2851347 17.1507448,59.862069 16.8815223,59.2129817 C16.6134553,58.5627354 16.7625098,57.813967 17.2570473,57.3178789 L43.2306643,31.2639815 L28.3806743,31.2639815 C27.6423344,31.2639815 26.9837214,30.7945523 26.74223,30.0933063 C26.5007386,29.3932194 26.7295199,28.6154738 27.3118725,28.1587946 L47.6791908,12.1193857 C48.4313961,11.5259345 49.5209962,11.656911 50.1125925,12.4137931 C50.7041887,13.168357 50.5724661,14.2602144 49.8191053,14.8536656 L33.3953768,27.7867285 L47.4145901,27.7867285 C48.1147997,27.7867285 48.7468371,28.2097943 49.0160596,28.8600406 C49.2841267,29.5102869 49.1350721,30.2578963 48.6405346,30.7551434 L22.6669176,56.8078818 L36.7554586,56.8078818 C37.4337144,56.8078818 38.0507308,57.2054477 38.3326634,57.8232396 C38.614596,58.4421907 38.5106045,59.1700956 38.0657518,59.6847291 L15.5862501,85.7432628 L25.8005289,77.7003767 C25.9010541,77.6169226 26.0119784,77.5450594 26.1298354,77.484787 C26.6775241,77.210084 27.3084061,77.2518111 27.8029436,77.5520139 C34.8061952,81.4697189 42.7707907,83.5398435 50.8405332,83.5398435 C76.9620493,83.5398435 98.214451,62.2208056 98.214451,36.0173863 C98.214451,23.6731382 93.5175004,11.9779774 84.9913506,3.08084613 C84.3281158,2.38887279 84.3500696,1.28890177 85.03988,0.623587366 C85.728535,-0.04288612 86.8262234,-0.0208635178 87.4906137,0.671109823 C96.641868,10.2184874 101.680835,22.7702115 101.680835,36.0173863 C101.680835,64.1390901 78.8743379,87.0170965 50.8405332,87.0170965 C42.5500976,87.0170965 34.3601871,84.9794263 27.0784693,81.11388 L3.56482955,99.629093 C3.24823312,99.8782961 2.8715527,100 2.49602774,100" id="Fill-4" fill="#ED754D" mask="url(#mask-4)"></path>
                    </g>
                </g>
            </g>
        </g>
    </g>
</svg>